<?xml version="1.0" encoding="utf-8"?>
<!-- Generator: Adobe Illustrator 26.0.3, SVG Export Plug-In . SVG Version: 6.00 Build 0)  -->
<svg version="1.1" xmlns="http://www.w3.org/2000/svg" xmlns:xlink="http://www.w3.org/1999/xlink" x="0px" y="0px"
	 viewBox="0 0 298 179" style="enable-background:new 0 0 298 179;" xml:space="preserve">
<style type="text/css">
	.st0{display:none;}
	.st1{fill:#FFFFFF;}
	.st2{fill:#AA81A4;}
</style>
<g id="Layer_2" class="st0">
</g>
<g id="Layer_1">
	<rect x="-119" y="-84" class="st0" width="517" height="395"/>
	<g>
		<path class="st1" d="M31.15,90.5l84.32,85.32h-29.1l-73.8-73.38L0.62,90.71l11.94-11.94l73.8-73.59h30.1L31.15,90.5z M12.57,78.77
			l73.8-73.59L12.57,78.77z M86.37,175.82l-73.8-73.38L86.37,175.82z"/>
	</g>
	<g>
		<path class="st1" d="M261,102h29c-2.71,17.5-10.75,35.43-24.02,48.7c-16.89,16.89-36.8,25.34-60.33,25.34
			c-23.83,0-43.89-8.6-60.33-25.34s-25.19-36.65-25.04-60.33c-0.15-23.68,8.45-43.74,25.04-60.33C162.06,13.3,181.97,4.85,205.65,5
			c23.53,0,43.59,8.3,60.33,25.04c13.27,13.27,21.27,31.5,23.98,49.3H260.7c-2.26-9.8-7.24-21.7-14.93-29.39
			c-11.01-11.01-24.59-16.44-40.12-16.59c-15.54,0.15-29.26,5.43-40.42,16.59c-11.16,11.16-16.44,24.89-16.59,40.42
			c0.15,15.54,5.58,29.11,16.59,40.12c11.31,11.31,24.88,16.74,40.42,16.89"/>
		<ellipse class="st2" cx="205.58" cy="90.33" rx="63.58" ry="63.62"/>
	</g>
</g>
</svg>
